<svg width="472" height="235" viewBox="0 0 472 235" fill="none" xmlns="http://www.w3.org/2000/svg">
<path d="M263.797 175V149.734H308.203C314.201 149.734 318.826 148.299 322.08 145.428C325.398 142.493 327.057 138.41 327.057 133.178V132.891C327.057 127.595 325.398 123.512 322.08 120.641C318.826 117.706 314.201 116.238 308.203 116.238H263.797V90.9727H308.203C313.626 90.9727 317.805 89.6009 320.74 86.8574C323.739 84.1139 325.238 80.2539 325.238 75.2773C325.238 70.7474 323.739 67.2702 320.74 64.8457C317.805 62.3574 313.626 61.1133 308.203 61.1133H263.797V35.8477H309.064C322.59 35.8477 333.054 39.1335 340.455 45.7051C347.92 52.2767 351.652 61.5599 351.652 73.5547C351.652 81.6576 349.26 88.3568 344.475 93.6523C339.753 98.8841 333.054 102.234 324.377 103.701C333.628 104.977 340.774 108.518 345.814 114.324C350.919 120.066 353.471 127.563 353.471 136.814V137.102C353.471 149.16 349.738 158.507 342.273 165.143C334.809 171.714 324.281 175 310.691 175H263.797ZM252.312 175V35.8477H278.535V175H252.312ZM411.004 97.1934H459.238V124.373C459.238 134.837 457.132 143.992 452.922 151.84C448.711 159.624 442.809 165.685 435.216 170.023C427.688 174.298 418.819 176.436 408.611 176.436C398.339 176.436 389.343 174.426 381.623 170.406C373.966 166.323 368.001 160.613 363.726 153.275C359.515 145.874 357.41 137.261 357.41 127.436V86.3789C357.41 75.9154 359.515 66.7917 363.726 59.0078C367.937 51.224 373.807 45.1947 381.336 40.9199C388.928 36.5814 397.828 34.4121 408.037 34.4121C416.459 34.4121 424.115 36.1348 431.006 39.5801C437.96 43.0254 443.798 47.8424 448.519 54.0312C453.241 60.2201 456.431 67.4616 458.09 75.7559H429.761C428.358 71.2259 425.55 67.7487 421.34 65.3242C417.192 62.8359 412.758 61.5918 408.037 61.5918C400.955 61.5918 395.276 63.8568 391.002 68.3867C386.727 72.9167 384.59 78.9141 384.59 86.3789V127.436C384.59 134.007 386.791 139.303 391.193 143.322C395.595 147.278 401.401 149.256 408.611 149.256C415.693 149.256 421.371 147.118 425.646 142.844C429.921 138.505 432.058 132.476 432.058 124.756V122.459H411.004V97.1934Z" fill="black"/>
<rect y="129" width="253" height="46" fill="#FF0000"/>
<rect y="36" width="253" height="47" fill="white"/>
<mask id="path-4-inside-1_1_12" fill="white">
<path d="M0 83H253V129H0V83Z"/>
</mask>
<path d="M0 83H253V129H0V83Z" fill="green"/>
<path d="M1 129V83H-1V129H1Z" fill="green" mask="url(#path-4-inside-1_1_12)"/>
</svg>
