<svg xmlns="http://www.w3.org/2000/svg" width="202" height="137" viewBox="0 0 202 137" fill="none">
  <g clip-path="url(#clip0_2_3)">
    <path d="M1 69C1 93.8528 19.1813 114 41.6091 114H160.391C182.819 114 201 93.8528 201 69C201 44.1472 182.819 24 160.391 24H41.6091C19.1813 24 1 44.1472 1 69Z" fill="#0085FF" stroke="#0085FF" stroke-width="2"/>
    <path d="M126 17C126 25.8366 132.454 33 140.416 33H182.584C190.546 33 197 25.8366 197 17C197 8.16344 190.546 1 182.584 1H140.416C132.454 1 126 8.16344 126 17Z" fill="#3CBE61" stroke="#3CBE61" stroke-width="2"/>
    <path d="M81.4 75.2775H105.658V70.6275H81.4V75.2775ZM81.4 65.2025H118.6V60.5525H81.4V65.2025ZM81.4 55.1275H118.6V50.4775H81.4V55.1275ZM69 100V42.65C69 41.41 69.465 40.325 70.395 39.395C71.325 38.465 72.41 38 73.65 38H126.35C127.59 38 128.675 38.465 129.605 39.395C130.535 40.325 131 41.41 131 42.65V82.95C131 84.19 130.535 85.275 129.605 86.205C128.675 87.135 127.59 87.6 126.35 87.6H81.4L69 100ZM79.385 82.95H126.35V42.65H73.65V89.15L79.385 82.95Z" fill="black"/>
    <path d="M3 120C3 128.837 9.45437 136 17.4162 136H59.5838C67.5456 136 74 128.837 74 120C74 111.163 67.5456 104 59.5838 104H17.4162C9.45437 104 3 111.163 3 120Z" fill="#3CBE61" stroke="#3CBE61" stroke-width="2"/>
  </g>
  <defs>
    <clipPath id="clip0_2_3">
      <rect width="202" height="137" fill="white"/>
    </clipPath>
  </defs>
</svg>