<svg width="202" height="137" viewBox="0 0 202 137" fill="none" xmlns="http://www.w3.org/2000/svg">
<rect width="202" height="137" fill="none"/>
<g clip-path="url(#clip0_0_1)">
<mask id="mask0_0_1" style="mask-type:luminance" maskUnits="userSpaceOnUse" x="0" y="0" width="202" height="137">
<path d="M202 0H0V137H202V0Z" fill="white"/>
</mask>
<g mask="url(#mask0_0_1)">
<path d="M1 69C1 93.8528 19.1813 114 41.6091 114H160.391C182.819 114 201 93.8528 201 69C201 44.1472 182.819 24 160.391 24H41.6091C19.1813 24 1 44.1472 1 69Z" fill="#14b8a6" stroke="#14b8a6" stroke-width="2"/>
<path d="M126 17C126 25.8366 132.454 33 140.416 33H182.584C190.546 33 197 25.8366 197 17C197 8.16344 190.546 1 182.584 1H140.416C132.454 1 126 8.16344 126 17Z" fill="#0f766e" stroke="#0f766e" stroke-width="2"/>
<path d="M3 120C3 128.837 9.45437 136 17.4162 136H59.5838C67.5456 136 74 128.837 74 120C74 111.163 67.5456 104 59.5838 104H17.4162C9.45437 104 3 111.163 3 120Z" fill="#0f766e" stroke="#0f766e" stroke-width="2"/>
</g>
<path d="M83.5 74.8333H106.833V69H83.5V74.8333ZM83.5 66.0833H118.5V60.25H83.5V66.0833ZM83.5 57.3333H118.5V51.5H83.5V57.3333ZM71.8333 98.1667V45.6667C71.8333 44.0625 72.4045 42.6892 73.5469 41.5469C74.6892 40.4045 76.0625 39.8333 77.6667 39.8333H124.333C125.937 39.8333 127.311 40.4045 128.453 41.5469C129.595 42.6892 130.167 44.0625 130.167 45.6667V80.6667C130.167 82.2708 129.595 83.6441 128.453 84.7865C127.311 85.9288 125.937 86.5 124.333 86.5H83.5L71.8333 98.1667ZM81.0208 80.6667H124.333V45.6667H77.6667V83.9479L81.0208 80.6667Z" fill="#ccfbf1"/>
</g>
<defs>
<clipPath id="clip0_0_1">
<rect width="202" height="137" fill="white"/>
</clipPath>
</defs>
</svg>
