<svg width="48" height="48" viewBox="0 0 48 48" fill="none" xmlns="http://www.w3.org/2000/svg">
<path d="M24 42C19 42 14.75 40.25 11.25 36.75C7.75 33.25 6 29 6 24C6 19 7.75 14.75 11.25 11.25C14.75 7.75 19 6 24 6C24.2667 6 24.55 6.00833 24.85 6.025C25.15 6.04167 25.5333 6.06667 26 6.1C24.8 7.16667 23.8667 8.48333 23.2 10.05C22.5333 11.6167 22.2 13.2667 22.2 15C22.2 18 23.25 20.55 25.35 22.65C27.45 24.75 30 25.8 33 25.8C34.7333 25.8 36.3833 25.4917 37.95 24.875C39.5167 24.2583 40.8333 23.4 41.9 22.3C41.9333 22.7 41.9583 23.025 41.975 23.275C41.9917 23.525 42 23.7667 42 24C42 29 40.25 33.25 36.75 36.75C33.25 40.25 29 42 24 42Z" fill="black"/>
</svg>
