<svg xmlns="http://www.w3.org/2000/svg" width="228" height="217" viewBox="0 0 228 217" fill="none">
  <path d="M25 105.5C25 126.763 40.3632 144 59.3147 144H159.685C178.637 144 194 126.763 194 105.5C194 84.237 178.637 67 159.685 67H59.3147C40.3632 67 25 84.237 25 105.5Z" fill="#F22C0D" stroke="#F22C0D" stroke-width="2"/>
  <path d="M109.5 190C130.763 190 148 174.637 148 155.685V55.3147C148 36.3632 130.763 21 109.5 21C88.237 21 71 36.3632 71 55.3147L71 155.685C71 174.637 88.237 190 109.5 190Z" fill="#F22C0D" stroke="#F22C0D" stroke-width="2"/>
  <path d="M11 51C11 59.8366 17.4544 67 25.4162 67H67.5838C75.5456 67 82 59.8366 82 51C82 42.1634 75.5456 35 67.5838 35H25.4162C17.4544 35 11 42.1634 11 51Z" fill="#7800B6" stroke="#7800B6" stroke-width="2"/>
  <path d="M141 158C141 166.837 147.454 174 155.416 174H197.584C205.546 174 212 166.837 212 158C212 149.163 205.546 142 197.584 142H155.416C147.454 142 141 149.163 141 158Z" fill="#FECF00" stroke="#FECF00" stroke-width="2"/>
  <path d="M96 125H122V118.5H96V125ZM96 112H122V105.5H96V112ZM89.5 138C87.7125 138 86.1823 137.364 84.9094 136.091C83.6365 134.818 83 133.287 83 131.5V79.5C83 77.7125 83.6365 76.1823 84.9094 74.9094C86.1823 73.6365 87.7125 73 89.5 73H115.5L135 92.5V131.5C135 133.287 134.364 134.818 133.091 136.091C131.818 137.364 130.287 138 128.5 138H89.5ZM112.25 95.75V79.5H89.5V131.5H128.5V95.75H112.25Z" fill="black"/>
</svg>