<svg width="48" height="48" viewBox="0 0 48 48" fill="none" xmlns="http://www.w3.org/2000/svg">
<path d="M24 34C21.2333 34 18.875 33.025 16.925 31.075C14.975 29.125 14 26.7667 14 24C14 21.2333 14.975 18.875 16.925 16.925C18.875 14.975 21.2333 14 24 14C26.7667 14 29.125 14.975 31.075 16.925C33.025 18.875 34 21.2333 34 24C34 26.7667 33.025 29.125 31.075 31.075C29.125 33.025 26.7667 34 24 34ZM3.5 25.5C3.075 25.5 2.71875 25.3554 2.43125 25.0663C2.14375 24.7771 2 24.4187 2 23.9913C2 23.5638 2.14375 23.2083 2.43125 22.925C2.71875 22.6417 3.075 22.5 3.5 22.5H8.5C8.925 22.5 9.28125 22.6446 9.56875 22.9337C9.85625 23.2229 10 23.5813 10 24.0087C10 24.4362 9.85625 24.7917 9.56875 25.075C9.28125 25.3583 8.925 25.5 8.5 25.5H3.5ZM39.5 25.5C39.075 25.5 38.7188 25.3554 38.4313 25.0663C38.1438 24.7771 38 24.4187 38 23.9913C38 23.5638 38.1438 23.2083 38.4313 22.925C38.7188 22.6417 39.075 22.5 39.5 22.5H44.5C44.925 22.5 45.2813 22.6446 45.5688 22.9337C45.8563 23.2229 46 23.5813 46 24.0087C46 24.4362 45.8563 24.7917 45.5688 25.075C45.2813 25.3583 44.925 25.5 44.5 25.5H39.5ZM23.9913 10C23.5638 10 23.2083 9.85625 22.925 9.56875C22.6417 9.28125 22.5 8.925 22.5 8.5V3.5C22.5 3.075 22.6446 2.71875 22.9337 2.43125C23.2229 2.14375 23.5813 2 24.0087 2C24.4362 2 24.7917 2.14375 25.075 2.43125C25.3583 2.71875 25.5 3.075 25.5 3.5V8.5C25.5 8.925 25.3554 9.28125 25.0663 9.56875C24.7771 9.85625 24.4187 10 23.9913 10ZM23.9913 46C23.5638 46 23.2083 45.8563 22.925 45.5688C22.6417 45.2813 22.5 44.925 22.5 44.5V39.5C22.5 39.075 22.6446 38.7188 22.9337 38.4313C23.2229 38.1438 23.5813 38 24.0087 38C24.4362 38 24.7917 38.1438 25.075 38.4313C25.3583 38.7188 25.5 39.075 25.5 39.5V44.5C25.5 44.925 25.3554 45.2813 25.0663 45.5688C24.7771 45.8563 24.4187 46 23.9913 46ZM12 14.1L9.15 11.3C8.85 11 8.70618 10.6399 8.71855 10.2198C8.73088 9.79972 8.87298 9.44138 9.14485 9.14485C9.44138 8.84828 9.79972 8.7 10.2199 8.7C10.64 8.7 11 8.85 11.3 9.15L14.1 12C14.3667 12.3 14.5 12.65 14.5 13.05C14.5 13.45 14.3667 13.7917 14.1 14.075C13.8333 14.3583 13.4917 14.5 13.075 14.5C12.6583 14.5 12.3 14.3667 12 14.1ZM36.7 38.85L33.9 36C33.6333 35.7 33.5 35.3438 33.5 34.9313C33.5 34.5188 33.6417 34.175 33.925 33.9C34.2083 33.6 34.55 33.45 34.95 33.45C35.35 33.45 35.7 33.6 36 33.9L38.85 36.7C39.15 37 39.2938 37.3601 39.2815 37.7802C39.2691 38.2003 39.127 38.5586 38.8552 38.8552C38.5586 39.1517 38.2003 39.3 37.7802 39.3C37.3601 39.3 37 39.15 36.7 38.85ZM33.9 14.1C33.6 13.8 33.45 13.45 33.45 13.05C33.45 12.65 33.6 12.3 33.9 12L36.7 9.15C37 8.85 37.3601 8.70618 37.7802 8.71855C38.2003 8.73088 38.5586 8.87298 38.8552 9.14485C39.1517 9.44138 39.3 9.79972 39.3 10.2198C39.3 10.6399 39.15 11 38.85 11.3L36 14.1C35.7333 14.3667 35.3939 14.5 34.9818 14.5C34.5697 14.5 34.2091 14.3667 33.9 14.1ZM9.14485 38.8552C8.84828 38.5586 8.7 38.2003 8.7 37.7802C8.7 37.3601 8.85 37 9.15 36.7L12 33.9C12.2933 33.6 12.6417 33.45 13.045 33.45C13.4483 33.45 13.7935 33.6 14.0805 33.9C14.3935 34.2 14.55 34.55 14.55 34.95C14.55 35.35 14.4 35.7 14.1 36L11.3 38.85C11 39.15 10.64 39.2938 10.2199 39.2815C9.79972 39.2691 9.44138 39.127 9.14485 38.8552Z" fill="white" stroke="white" stroke-width="0.05"/>
</svg>
