<svg width="71" height="30" viewBox="0 0 71 30" fill="none" xmlns="http://www.w3.org/2000/svg">
<g clip-path="url(#clip0_1_3)">
<rect x="1" y="1" width="69" height="29" rx="14.5" fill="url(#paint0_linear_1_3)"/>
<path d="M16 29C7.71573 29 1 23.2843 1 15C1 6.71573 7.71573 1 16 1" stroke="black" stroke-width="2"/>
<path d="M55 29C63.2843 29 70 22.732 70 15C70 7.26801 63.2843 1 55 1" stroke="black" stroke-width="2"/>
<line x1="16" y1="1" x2="55" y2="1" stroke="black" stroke-width="2"/>
<line x1="16" y1="29" x2="55" y2="29" stroke="black" stroke-width="2"/>
<g clip-path="url(#clip1_1_3)">
<path d="M55 19.1667C53.8472 19.1667 52.8646 18.7604 52.0521 17.9479C51.2396 17.1354 50.8333 16.1528 50.8333 15C50.8333 13.8472 51.2396 12.8646 52.0521 12.0521C52.8646 11.2396 53.8472 10.8333 55 10.8333C56.1528 10.8333 57.1354 11.2396 57.9479 12.0521C58.7604 12.8646 59.1667 13.8472 59.1667 15C59.1667 16.1528 58.7604 17.1354 57.9479 17.9479C57.1354 18.7604 56.1528 19.1667 55 19.1667ZM46.4583 15.625C46.2812 15.625 46.1328 15.5648 46.013 15.4443C45.8932 15.3238 45.8333 15.1745 45.8333 14.9963C45.8333 14.8182 45.8932 14.6701 46.013 14.5521C46.1328 14.434 46.2812 14.375 46.4583 14.375H48.5417C48.7187 14.375 48.8672 14.4352 48.987 14.5557C49.1068 14.6762 49.1667 14.8255 49.1667 15.0036C49.1667 15.1818 49.1068 15.3299 48.987 15.4479C48.8672 15.566 48.7187 15.625 48.5417 15.625H46.4583ZM61.4583 15.625C61.2812 15.625 61.1328 15.5648 61.013 15.4443C60.8932 15.3238 60.8333 15.1745 60.8333 14.9963C60.8333 14.8182 60.8932 14.6701 61.013 14.5521C61.1328 14.434 61.2812 14.375 61.4583 14.375H63.5417C63.7187 14.375 63.8672 14.4352 63.987 14.5557C64.1068 14.6762 64.1667 14.8255 64.1667 15.0036C64.1667 15.1818 64.1068 15.3299 63.987 15.4479C63.8672 15.566 63.7187 15.625 63.5417 15.625H61.4583ZM54.9963 9.16666C54.8182 9.16666 54.6701 9.10677 54.5521 8.98697C54.434 8.86718 54.375 8.71874 54.375 8.54166V6.45833C54.375 6.28124 54.4352 6.13281 54.5557 6.01302C54.6762 5.89322 54.8255 5.83333 55.0036 5.83333C55.1818 5.83333 55.3299 5.89322 55.4479 6.01302C55.566 6.13281 55.625 6.28124 55.625 6.45833V8.54166C55.625 8.71874 55.5648 8.86718 55.4443 8.98697C55.3238 9.10677 55.1745 9.16666 54.9963 9.16666ZM54.9963 24.1667C54.8182 24.1667 54.6701 24.1068 54.5521 23.987C54.434 23.8672 54.375 23.7187 54.375 23.5417V21.4583C54.375 21.2812 54.4352 21.1328 54.5557 21.013C54.6762 20.8932 54.8255 20.8333 55.0036 20.8333C55.1818 20.8333 55.3299 20.8932 55.4479 21.013C55.566 21.1328 55.625 21.2812 55.625 21.4583V23.5417C55.625 23.7187 55.5648 23.8672 55.4443 23.987C55.3238 24.1068 55.1745 24.1667 54.9963 24.1667ZM50 10.875L48.8125 9.70833C48.6875 9.58333 48.6276 9.43331 48.6327 9.25826C48.6379 9.08321 48.6971 8.9339 48.8103 8.81035C48.9339 8.68678 49.0832 8.62499 49.2583 8.62499C49.4333 8.62499 49.5833 8.68749 49.7083 8.81249L50.875 9.99999C50.9861 10.125 51.0417 10.2708 51.0417 10.4375C51.0417 10.6042 50.9861 10.7465 50.875 10.8646C50.7639 10.9826 50.6215 11.0417 50.4479 11.0417C50.2743 11.0417 50.125 10.9861 50 10.875ZM60.2917 21.1875L59.125 20C59.0139 19.875 58.9583 19.7266 58.9583 19.5547C58.9583 19.3828 59.0174 19.2396 59.1354 19.125C59.2535 19 59.3958 18.9375 59.5625 18.9375C59.7292 18.9375 59.875 19 60 19.125L61.1875 20.2917C61.3125 20.4167 61.3724 20.5667 61.3673 20.7417C61.3621 20.9168 61.3029 21.0661 61.1896 21.1896C61.0661 21.3132 60.9168 21.375 60.7417 21.375C60.5667 21.375 60.4167 21.3125 60.2917 21.1875ZM59.125 10.875C59 10.75 58.9375 10.6042 58.9375 10.4375C58.9375 10.2708 59 10.125 59.125 9.99999L60.2917 8.81249C60.4167 8.68749 60.5667 8.62757 60.7417 8.63272C60.9168 8.63786 61.0661 8.69707 61.1896 8.81035C61.3132 8.9339 61.375 9.08321 61.375 9.25826C61.375 9.43331 61.3125 9.58333 61.1875 9.70833L60 10.875C59.8889 10.9861 59.7475 11.0417 59.5757 11.0417C59.404 11.0417 59.2538 10.9861 59.125 10.875ZM48.8103 21.1896C48.6868 21.0661 48.625 20.9168 48.625 20.7417C48.625 20.5667 48.6875 20.4167 48.8125 20.2917L50 19.125C50.1222 19 50.2674 18.9375 50.4354 18.9375C50.6035 18.9375 50.7473 19 50.8668 19.125C50.9973 19.25 51.0625 19.3958 51.0625 19.5625C51.0625 19.7292 51 19.875 50.875 20L49.7083 21.1875C49.5833 21.3125 49.4333 21.3724 49.2583 21.3673C49.0832 21.3621 48.9339 21.3029 48.8103 21.1896Z" fill="black"/>
</g>
<circle cx="17" cy="15" r="9" fill="#D9D9D9" stroke="black" stroke-width="2"/>
</g>
<defs>
<linearGradient id="paint0_linear_1_3" x1="21.5" y1="-13" x2="42.5" y2="40" gradientUnits="userSpaceOnUse">
<stop offset="0.334643" stop-color="white"/>
<stop offset="1" stop-color="#EBFF00"/>
</linearGradient>
<clipPath id="clip0_1_3">
<rect width="71" height="30" fill="white"/>
</clipPath>
<clipPath id="clip1_1_3">
<rect width="20" height="20" fill="white" transform="translate(45 5)"/>
</clipPath>
</defs>
</svg>
