<svg xmlns="http://www.w3.org/2000/svg" width="228" height="217" viewBox="0 0 228 217" fill="none">
  <rect x="42" y="36" width="145" height="145" rx="35" fill="#FFB800"/>
  <path d="M37 39C37 47.8366 43.4544 55 51.4162 55H93.5838C101.546 55 108 47.8366 108 39C108 30.1634 101.546 23 93.5838 23H51.4162C43.4544 23 37 30.1634 37 39Z" fill="#2F9E41" stroke="#2F9E41" stroke-width="2"/>
  <path d="M133 178C133 186.837 139.454 194 147.416 194H189.584C197.546 194 204 186.837 204 178C204 169.163 197.546 162 189.584 162H147.416C139.454 162 133 169.163 133 178Z" fill="#0038FE" stroke="#0038FE" stroke-width="2"/>
  <path d="M144.053 146L121 122.915L129.842 114.061L152.895 137.146L144.053 146ZM85.9474 146L77.1053 137.146L106.158 108.053L99 100.885L96.0526 103.836L90.6842 98.4605V107.104L87.7368 110.055L75 97.301L77.9474 94.3495H86.5789L81.3158 89.0791L96.2632 74.111C97.6667 72.7055 99.1754 71.6865 100.789 71.0541C102.404 70.4216 104.053 70.1054 105.737 70.1054C107.421 70.1054 109.07 70.4216 110.684 71.0541C112.298 71.6865 113.807 72.7055 115.211 74.111L105.526 83.8086L110.789 89.0791L107.842 92.0305L115 99.1983L124.474 89.7115C124.193 88.9385 123.965 88.1304 123.789 87.2871C123.614 86.4438 123.526 85.6006 123.526 84.7573C123.526 80.6112 124.947 77.1151 127.789 74.2691C130.632 71.423 134.123 70 138.263 70C139.316 70 140.316 70.1054 141.263 70.3162C142.211 70.527 143.175 70.8433 144.158 71.2649L133.737 81.7004L141.316 89.2899L151.737 78.8544C152.228 79.8382 152.561 80.8044 152.737 81.7531C152.912 82.7018 153 83.7032 153 84.7573C153 88.9034 151.579 92.3994 148.737 95.2455C145.895 98.0915 142.404 99.5146 138.263 99.5146C137.421 99.5146 136.579 99.4443 135.737 99.3037C134.895 99.1632 134.088 98.9172 133.316 98.5659L85.9474 146Z" fill="black"/>
</svg>