<svg width="237" height="222" viewBox="0 0 237 222" fill="none" xmlns="http://www.w3.org/2000/svg">
<path d="M140.714 0.514698L81.3244 107.515C80.9545 108.181 81.4297 109 82.192 109H114C114.789 109 153.623 38.2348 173.706 1.45423C174.07 0.787884 173.574 0 172.815 0H141.589C141.225 0 140.891 0.197042 140.714 0.514698Z" fill="#4E4C4D"/>
<path d="M122.214 113.515L62.8244 220.515C62.4545 221.181 62.9297 222 63.692 222H95.5C96.2895 222 135.123 151.235 155.206 114.454C155.57 113.788 155.074 113 154.315 113H123.089C122.725 113 122.391 113.197 122.214 113.515Z" fill="#EC5631"/>
<path d="M163.214 113.515L103.824 220.515C103.454 221.181 103.93 222 104.692 222H136.5C137.289 222 176.123 151.235 196.206 114.454C196.57 113.788 196.074 113 195.315 113H164.089C163.725 113 163.391 113.197 163.214 113.515Z" fill="#CA2D7A"/>
<path d="M203.214 113.515L143.824 220.515C143.454 221.181 143.93 222 144.692 222H176.5C177.289 222 216.123 151.235 236.206 114.454C236.57 113.788 236.074 113 235.315 113H204.089C203.725 113 203.391 113.197 203.214 113.515Z" fill="#762C8D"/>
<path d="M100.214 0.514698L40.8244 107.515C40.4545 108.181 40.9297 109 41.692 109H73.5C74.2895 109 113.123 38.2348 133.206 1.45423C133.57 0.787884 133.074 0 132.315 0H101.089C100.725 0 100.391 0.197042 100.214 0.514698Z" fill="#4E4C4D"/>
<path d="M60.2143 0.514698L0.824414 107.515C0.454462 108.181 0.929714 109 1.69203 109H33.5C34.2895 109 73.1233 38.2348 93.2061 1.45423C93.5699 0.787884 93.074 0 92.3148 0H61.0887C60.7254 0 60.3906 0.197042 60.2143 0.514698Z" fill="#4E4C4D"/>
<path d="M137.659 78.1572L122.738 107.547C122.4 108.213 122.883 109 123.629 109H155.28C156.047 109 156.529 108.172 156.149 107.505L139.419 78.1152C139.025 77.4228 138.019 77.4468 137.659 78.1572Z" fill="#818286"/>
<path d="M158.123 43.0211L142.282 70.511C142.107 70.8145 142.104 71.1874 142.273 71.494L162.715 108.484C162.891 108.802 163.226 109 163.59 109H195.289C196.054 109 196.536 108.176 196.161 107.509L159.861 43.0299C159.481 42.3545 158.51 42.3496 158.123 43.0211Z" fill="#818286"/>
<path d="M178.63 4.66333L162.749 35.0242C162.593 35.3213 162.597 35.6766 162.759 35.9703L202.715 108.483C202.891 108.802 203.226 109 203.591 109H235.32C236.078 109 236.56 108.189 236.199 107.523L180.395 4.65001C180.013 3.94643 179.001 3.95407 178.63 4.66333Z" fill="#818286"/>
<path d="M99.3413 143.843L114.262 114.453C114.6 113.787 114.117 113 113.371 113H81.7199C80.9528 113 80.4714 113.828 80.8508 114.495L97.5806 143.885C97.9747 144.577 98.9807 144.553 99.3413 143.843Z" fill="#818286"/>
<path d="M78.8766 178.979L94.7182 151.489C94.8931 151.186 94.8964 150.813 94.727 150.506L74.2853 113.516C74.1093 113.198 73.7741 113 73.4101 113H41.7105C40.9456 113 40.4639 113.824 40.8391 114.491L77.1387 178.97C77.5189 179.645 78.4896 179.65 78.8766 178.979Z" fill="#818286"/>
<path d="M58.3701 217.337L74.2511 186.976C74.4065 186.679 74.4027 186.323 74.2409 186.03L34.2851 113.517C34.1092 113.198 33.7737 113 33.4093 113H1.68011C0.922069 113 0.439662 113.811 0.801105 114.477L56.605 217.35C56.9866 218.054 57.9991 218.046 58.3701 217.337Z" fill="#818286"/>
</svg>
